<svg xmlns="http://www.w3.org/2000/svg" width="51.964" height="44.506" viewBox="0 0 51.964 44.506">
  <path id="ic_car" d="M-2253.209,1708.506h-5.6a2.08,2.08,0,0,1-1.477-.609,2.084,2.084,0,0,1-.611-1.478v-2.977h-26.244v2.977a2.083,2.083,0,0,1-.611,1.478,2.079,2.079,0,0,1-1.477.609h-5.6a2.081,2.081,0,0,1-1.478-.609,2.084,2.084,0,0,1-.61-1.478v-3.09a.906.906,0,0,1-.646-1v-11.6a6.95,6.95,0,0,1,.532-2.246c-.057-.01-.114-.015-.171-.031l-1.714-.482a1.485,1.485,0,0,1-.9-.7,1.485,1.485,0,0,1-.134-1.133l.894-3.172a1.483,1.483,0,0,1,.7-.9,1.483,1.483,0,0,1,1.132-.134l1.713.482a1.481,1.481,0,0,1,.712.449l4.253-9.979c1.206-3.24,5.652-4.285,10.286-4.591,0-.046,0-.091,0-.138v-1.039a3.118,3.118,0,0,1,3.118-3.118h6.236a3.118,3.118,0,0,1,3.117,3.118v1.039c0,.081,0,.16-.009.238,4.612.334,9.047,1.323,10.292,4.491l4.253,9.979a1.48,1.48,0,0,1,.712-.449l1.712-.482a1.487,1.487,0,0,1,1.133.133,1.485,1.485,0,0,1,.7.9l.893,3.172a1.488,1.488,0,0,1-.133,1.132,1.487,1.487,0,0,1-.9.7l-1.713.481a1.506,1.506,0,0,1-.171.031,6.966,6.966,0,0,1,.531,2.246v11.6a.906.906,0,0,1-.645,1v3.09a2.081,2.081,0,0,1-.611,1.478,2.081,2.081,0,0,1-1.472.609Zm-9.4-16.787c-.73.205-1.373,1.586-1.369,2.344.008,2.026,4.159,1.887,7.211,1.749.8-.037,1.516-.073,2.069-.07a1.363,1.363,0,0,0,.969-.4,1.366,1.366,0,0,0,.4-.969v-3.234c0-.759-1.255-1.352-2.344-1.37h-.015C-2256.818,1689.769-2262.611,1691.719-2262.611,1691.719Zm-28.656,4.093c3.052.139,7.2.278,7.211-1.749,0-.758-.639-2.139-1.369-2.344,0,0-5.847-1.969-6.937-1.95s-2.344.611-2.344,1.37v3.234a1.369,1.369,0,0,0,.4.969,1.364,1.364,0,0,0,.969.4h.052C-2292.738,1695.742-2292.037,1695.777-2291.266,1695.812Zm.243-12.317c-.1.3.2.5.516.517,0,0,10.986.976,16.492.976.225,0,16.516-.635,16.516-.635.315-.018.588-.558.488-.858-4.753-12.578-4.825-11.657-17.24-11.793-2.089-.022-3.83-.069-5.3-.069C-2286.825,1671.634-2287.5,1672.768-2291.024,1683.5Z" transform="translate(2300 -1664)" fill="#9ee351"/>
</svg>
