<svg xmlns="http://www.w3.org/2000/svg" width="350.61" height="90.024" viewBox="0 0 350.61 90.024">
  <path id="ic_run" d="M27.9-71.982A22.087,22.087,0,0,1,38.014-84.258q7.516-4.464,24.587-4.464,24.866,0,34.794,6.231t9.928,29.481v4.092H94.488q0-16.554-5.115-22.413T67.518-77.19H63.054q-18.972,0-27.063,5.3T27.9-48.918V0H14.88V-87.42H27.9ZM218.178-16.926a25.852,25.852,0,0,1-12.09,13.392Q197.346,1.3,178.188,1.3q-31.806,0-41.85-8.742T126.294-33.294V-87.42h13.02v47.8q0,18.786,8,24.366,8.184,5.022,28.644,5.022,21.2,0,31.713-5.022t10.509-24.366v-47.8H231.2V0h-13.02Zm55.614-52.452q4.092-12.462,14.229-15.9T314.9-88.722h1.674q14.694,0,22.878,1.488a31.866,31.866,0,0,1,15.81,6.7q6.7,5.022,8.463,11.9a64.7,64.7,0,0,1,1.767,16V0H352.47V-51.336q0-16.182-8.742-21.018T316.572-77.19q-21.2,0-31.992,4.65T273.792-49.29V0h-13.02V-87.42h13.02Z" transform="translate(-14.88 88.722)" fill="#fff"/>
</svg>
