<svg xmlns="http://www.w3.org/2000/svg" xmlns:xlink="http://www.w3.org/1999/xlink" width="81.958" height="100.038" viewBox="0 0 81.958 100.038">
  <defs>
    <radialGradient id="radial-gradient" cx="0.5" cy="-1.344" r="0.5" gradientUnits="objectBoundingBox">
      <stop offset="0" stop-color="#9b9e9f"/>
      <stop offset="1" stop-color="#5d5f5d"/>
    </radialGradient>
  </defs>
  <path id="ic_shield" d="M-1803.043,2154.038a3.723,3.723,0,0,1-1.06-.154,13.136,13.136,0,0,1-2.688-1.119c-.944-.522-2.463-1.39-4.334-2.56a104.021,104.021,0,0,1-13.106-9.682,68.707,68.707,0,0,1-13.4-15.412,39.871,39.871,0,0,1-6.367-21.026v-31.873a4.528,4.528,0,0,1,1.309-3.2,4.526,4.526,0,0,1,3.169-1.358l.031,0c.039,0,.188-.011.467-.041.5-.055,1.363-.176,2.669-.438a117.215,117.215,0,0,0,13.682-3.838,67.6,67.6,0,0,0,13.326-5.845,26.344,26.344,0,0,0,2.606-1.753c.234-.182.394-.317.486-.4l.057-.051a4.528,4.528,0,0,1,3.177-1.292,4.528,4.528,0,0,1,3.177,1.292l.057.051c.054.048.209.182.486.4a26.154,26.154,0,0,0,2.605,1.753,67.624,67.624,0,0,0,13.326,5.845,117.184,117.184,0,0,0,13.682,3.838c1.307.262,2.173.383,2.669.438.261.028.414.038.467.041l.031,0a4.525,4.525,0,0,1,3.169,1.358,4.527,4.527,0,0,1,1.309,3.2v31.873a39.872,39.872,0,0,1-6.367,21.026,68.7,68.7,0,0,1-13.4,15.412,104.012,104.012,0,0,1-13.107,9.682c-1.862,1.164-3.385,2.034-4.334,2.56a13.122,13.122,0,0,1-2.69,1.11A3.828,3.828,0,0,1-1803.043,2154.038Zm-.114-90.88a3.67,3.67,0,0,0-2.575,1.048l-.046.042c-.072.063-.2.17-.394.323a21.482,21.482,0,0,1-2.112,1.42,54.8,54.8,0,0,1-10.8,4.738,95.364,95.364,0,0,1-11.088,3.111c-1.052.211-1.757.309-2.164.355-.141.015-.272.027-.378.034h-.025a3.707,3.707,0,0,0-3.629,3.69v25.831c0,12.82,8.712,23.135,16.021,29.531a82.936,82.936,0,0,0,10.622,7.847c1.2.748,2.38,1.446,3.513,2.074a10.684,10.684,0,0,0,2.178.906,3.033,3.033,0,0,0,.861.124,3.1,3.1,0,0,0,.892-.131,10.607,10.607,0,0,0,2.181-.9c1.133-.628,2.315-1.326,3.513-2.074a82.936,82.936,0,0,0,10.622-7.847c7.309-6.4,16.021-16.71,16.021-29.531v-25.831a3.707,3.707,0,0,0-3.629-3.69h-.025c-.1-.007-.231-.018-.379-.034-.4-.045-1.107-.144-2.163-.355a95.353,95.353,0,0,1-11.088-3.111,54.842,54.842,0,0,1-10.8-4.738,21.482,21.482,0,0,1-2.112-1.42c-.212-.165-.338-.273-.393-.323l-.047-.042,0,0A3.671,3.671,0,0,0-1803.157,2063.158Z" transform="translate(1844 -2054)" fill="url(#radial-gradient)"/>
</svg>
