<svg xmlns="http://www.w3.org/2000/svg" width="180" height="100" viewBox="0 0 180 100"><path d="M-2241.271,1768.149a9.433,9.433,0,0,1-3.212-2.12l-31.074-31.19a9.531,9.531,0,0,1,0-13.444,9.446,9.446,0,0,1,13.394,0l24.961,25.054,74.211-74.487a9.446,9.446,0,0,1,13.394,0,9.533,9.533,0,0,1,0,13.444l-80.687,80.987a9.423,9.423,0,0,1-6.7,2.784A9.438,9.438,0,0,1-2241.271,1768.149Zm-57.6-8.036-25.181-25.274a9.531,9.531,0,0,1,0-13.444,9.447,9.447,0,0,1,13.395,0l25.18,25.275a9.531,9.531,0,0,1,0,13.443,9.421,9.421,0,0,1-6.7,2.784A9.424,9.424,0,0,1-2298.867,1760.113Zm56.583-43.03a9.531,9.531,0,0,1,0-13.444l30.538-30.653a9.447,9.447,0,0,1,13.394,0,9.532,9.532,0,0,1,0,13.444l-30.538,30.653a9.425,9.425,0,0,1-6.7,2.784A9.425,9.425,0,0,1-2242.284,1717.083Z" transform="translate(2326.822 -1669.178)"/></svg>